<svg width="79" height="18" fill="none" xmlns="http://www.w3.org/2000/svg"><g clip-path="url(#clip0)" fill="#2D2D2D"><path d="M14.143 11.858l.024 6.068-14.104.024v-.386c.773-.508 1.16-1.548 1.16-3.12L1.197 3.687C1.198 2.115.812 1.076.04.568V.18L6.97.157v.387c-.773.556-1.16 1.595-1.16 3.118l.025 10.783c0 .943.193 1.596.58 1.982.386.387 1.014.58 1.883.58h.073c1.376 0 2.511-.483 3.43-1.426.917-.943 1.569-2.2 1.955-3.747l.387.024zM30.057 13.134v4.739l-13.548.024v-.387c.772-.508 1.159-1.547 1.159-3.119l-.024-10.758c0-1.571-.387-2.611-1.16-3.119V.127l12.92-.024v4.739h-.386c-.507-1.136-1.207-2.08-2.1-2.78C26 1.36 24.96.998 23.728.998h-1.473l.024 7.494 1.16-.096c.772-.073 1.4-.339 1.86-.798.482-.46.893-1.088 1.28-1.862h.386l.024 6.19h-.387c-.41-.75-.845-1.354-1.304-1.838-.459-.46-1.087-.725-1.86-.798l-1.159-.096.024 5.222c0 .918.17 1.571.508 1.982.338.411.87.605 1.594.605h.048c1.183 0 2.246-.363 3.14-1.088a7.09 7.09 0 002.076-2.78h.387zM58.231 14.292c0 1.523.387 2.539 1.16 3.119v.387l-6.931.024v-.387c.773-.508 1.159-1.547 1.159-3.119l-.024-10.758c0-1.572-.387-2.611-1.16-3.119V.052l6.932-.024v.387c-.773.556-1.16 1.596-1.16 3.119l.024 10.758zM73.45 17.14c-.845-.58-1.714-1.474-2.656-2.756a11.18 11.18 0 01-.652-.967c-.218-.362-.435-.677-.58-.943-.169-.265-.386-.677-.676-1.232-.29-.557-.531-.968-.676-1.234v-.362c2.342-.653 3.502-2.297 3.502-4.884S70.6.894 68.379.894h-.58l.024 13.37c0 1.523.387 2.562 1.16 3.118v.387l-6.932.024v-.387c.773-.483 1.16-1.523 1.16-3.118l-.024-10.759c0-1.571-.387-2.61-1.16-3.118V.024L69.345 0c4.878 0 7.341 1.595 7.341 4.835 0 1.305-.41 2.296-1.207 3.022a6.037 6.037 0 01-2.898 1.402l1.11 1.572c2.03 2.852 3.816 4.883 5.338 6.044l-.097.386a4.852 4.852 0 01-2.584.726c-1.11.024-2.052-.266-2.898-.846zM38.272 12.013l-.483-.725-1.521 2.103c-1.594 2.176-3.14 3.554-4.637 4.062v.386l5.99-.024v-.387c-1.015-1.063-.991-2.538.096-4.4l.555-1.015zM46.92 13.463l-3.937-5.996 1.932-2.95c1.4-2.103 2.946-3.481 4.612-4.086V.045l-5.989.024v.387c.483.483.725 1.16.725 2.006a4.305 4.305 0 01-.532 2.249l-1.159 2.176-1.618-2.442c-1.11-1.717-1.207-3.046-.266-3.99V.07L31.85.093V.48c.41.17.845.508 1.304.967.459.483.82.919 1.135 1.305.29.411.676.967 1.159 1.693l5.868 8.897c.556.846.894 1.62.966 2.369.073.725-.12 1.305-.603 1.74v.387l9.08-.024v-.387c-1.16-.532-2.44-1.837-3.84-3.964z"/></g><defs><clipPath id="clip0"><path fill="#fff" d="M0 0h79v18H0z"/></clipPath></defs></svg>